<svg xmlns="http://www.w3.org/2000/svg" viewBox="0 0 96 128" role="img" aria-label="Sri Lanka emblem">
  <defs>
    <linearGradient id="g" x1="0" x2="1" y1="0" y2="1">
      <stop stop-color="#ffcc34"/>
      <stop offset="1" stop-color="#d4840b"/>
    </linearGradient>
  </defs>
  <path fill="url(#g)" stroke="#005596" stroke-width="4" d="M48 4c9 10 19 14 30 15-5 9-4 18 1 27 4 8 5 18 1 28-5 14-17 25-32 33C33 99 21 88 16 74c-4-10-3-20 1-28 5-9 6-18 1-27C29 18 39 14 48 4Z"/>
  <circle cx="48" cy="61" r="28" fill="#b91d1d" stroke="#ffd25a" stroke-width="7"/>
  <circle cx="48" cy="61" r="17" fill="#ffc828" stroke="#005596" stroke-width="3"/>
  <path fill="#8b1111" d="M48 43l5 11 12 2-9 8 3 12-11-6-11 6 3-12-9-8 12-2 5-11Z"/>
  <path fill="#ffcc34" stroke="#005596" stroke-width="3" d="M20 107h56v10H20zM13 117h70v7H13z"/>
  <circle cx="48" cy="19" r="7" fill="#ffcc34" stroke="#005596" stroke-width="3"/>
</svg>
